<?xml version="1.0" encoding="utf-8"?>
<!-- Generator: Adobe Illustrator 19.0.0, SVG Export Plug-In . SVG Version: 6.00 Build 0)  -->
<svg version="1.1" id="Layer_1" xmlns="http://www.w3.org/2000/svg" xmlns:xlink="http://www.w3.org/1999/xlink" x="0px" y="0px"
	 viewBox="25 -25 100 100" style="enable-background:new 25 -25 100 100;" xml:space="preserve">
<style type="text/css">
	.st0{display:none;}
	.st1{display:inline;}
	.st2{fill:#010101;}
	.st3{fill:none;}
</style>
<g id="Layer_5" class="st0">
	<g class="st1">
		<g class="st0">
			<g class="st1">
				<g>
					<path class="st2" d="M75.5,81.2c-31.2,0-56.7-25.4-56.7-56.7c0-31.2,25.4-56.7,56.7-56.7s56.7,25.4,56.7,56.7
						C132.2,55.7,106.7,81.2,75.5,81.2z M75.5-29.2c-29.6,0-53.7,24.1-53.7,53.7s24.1,53.7,53.7,53.7s53.7-24.1,53.7-53.7
						S105.1-29.2,75.5-29.2z"/>
				</g>
				<g>
					<path class="st2" d="M75.5,111.1c-47.7,0-86.6-38.8-86.6-86.6c0-47.7,38.8-86.6,86.6-86.6s86.6,38.8,86.6,86.6
						C162.1,72.2,123.2,111.1,75.5,111.1z M75.5-59.2c-46.1,0-83.7,37.6-83.7,83.7s37.5,83.7,83.7,83.7s83.7-37.5,83.7-83.7
						S121.6-59.2,75.5-59.2z"/>
				</g>
				<g>
					<path class="st2" d="M41.8-33.3l-3.7,2l0.5,2.4l-2,1.1l-2.3-11.7l2.6-1.4l8.6,8.2l-2,1.1L41.8-33.3z M37.7-33.1l2.8-1.5l-4-4
						L37.7-33.1z"/>
					<path class="st2" d="M50.4-46.5c2.7-0.9,4,0.2,4.5,1.8l1.6,5c0.5,1.5,0,3.2-2.7,4.1l-4,1.3l-3.5-10.8L50.4-46.5z M51.3-36.9
						l1.8-0.6c1.4-0.4,1.6-1.1,1.2-2.2l-1.3-4c-0.3-1-0.9-1.5-2.3-1L49-44.1L51.3-36.9z"/>
					<path class="st2" d="M67.5-50.1l2.2-0.3l-1.9,11.7l-3.2,0.4l-4.8-10.9l2.2-0.3l4,9.1L67.5-50.1z"/>
					<path class="st2" d="M77.9-39h-2.2l0.2-11.4h2.2L77.9-39z"/>
					<path class="st2" d="M86.5-38c-1.3-0.2-2.7-0.8-3.4-1.2l0.6-1.6c1,0.5,2,0.9,3.1,1c1.5,0.2,1.8,0,2-1.1C89-42.1,89-42.3,87-43
						c-2.6-1-2.9-1.6-2.5-4c0.3-2,1.4-2.9,4.3-2.4c1,0.2,2.1,0.5,3.2,0.9l-0.5,1.8c-0.9-0.4-2-0.7-3-0.8c-1.4-0.2-1.7,0-1.9,1
						c-0.2,1.3-0.2,1.3,1.7,2.1c2.9,1.2,3,1.7,2.6,4C90.7-38.5,89.9-37.5,86.5-38z"/>
					<path class="st2" d="M104.4-36.7c-0.6,1.8-2.2,2.9-5.2,1.9c-3-1.1-3.5-2.9-2.9-4.7l1.6-4.5c0.6-1.8,2.2-2.9,5.2-1.9
						c3,1.1,3.5,2.9,2.9,4.7L104.4-36.7z M98.4-38.9c-0.4,1-0.1,1.8,1.5,2.3c1.5,0.5,2.2,0.1,2.6-0.9l1.5-4.2c0.4-1,0.1-1.8-1.5-2.3
						c-1.5-0.5-2.2-0.1-2.6,0.9L98.4-38.9z"/>
					<path class="st2" d="M113.9-27.9l-0.4-4.6l-1.8-1l-1.9,3.2l-1.9-1.1l5.8-9.8l4,2.4c2.3,1.3,2.6,2.8,1.6,4.5l-0.8,1.3
						c-0.7,1.2-1.6,1.7-2.9,1.5l0.4,4.9L113.9-27.9z M116.8-37.2l-2.1-1.2l-2,3.3l2.1,1.2c1,0.6,1.6,0.4,2-0.4l0.6-1
						C117.9-36.1,117.8-36.6,116.8-37.2z"/>
				</g>
				<g>
					<path class="st2" d="M2,29.2c-0.1-1,0.1-2.1,0.4-2.7l1.3,0.2c-0.2,0.8-0.3,1.6-0.3,2.4c0.1,1.2,0.3,1.3,1.1,1.3
						c1-0.1,1-0.1,1.3-1.7c0.3-2.1,0.7-2.4,2.5-2.5c1.6-0.1,2.4,0.6,2.5,2.7c0,0.7,0,1.7-0.1,2.5l-1.4-0.1c0.1-0.7,0.2-1.6,0.1-2.3
						c-0.1-1.1-0.3-1.3-1.1-1.2c-1,0.1-1,0.1-1.3,1.6c-0.4,2.3-0.8,2.5-2.5,2.6C3,32.2,2.1,31.7,2,29.2z"/>
					<path class="st2" d="M12.5,41l-6,1.2c-1.3,0.3-2.7-0.2-3.2-2.6s0.6-3.4,1.9-3.6l6-1.2l0.3,1.6l-5.8,1.2c-0.8,0.2-1.2,0.7-1,1.8
						c0.2,1.1,0.8,1.4,1.6,1.3l5.8-1.2L12.5,41z"/>
					<path class="st2" d="M13.4,44.2l1.1,3.2c0.7,1.9,0.1,2.8-1.3,3.3l-1.1,0.4c-1.4,0.5-2.4,0-3.1-1.9l-0.6-1.6l-2.6,0.9L5.3,47
						L13.4,44.2z M13.2,47.8l-0.5-1.5l-2.8,1l0.5,1.5c0.3,0.9,0.7,1,1.4,0.8l0.8-0.3C13.3,49,13.5,48.6,13.2,47.8z"/>
					<path class="st2" d="M16.6,52.5l2.4,4.7l-1.3,0.7L16,54.7l-1.8,0.9l1.5,3l-1.3,0.7l-1.5-3l-2,1l1.7,3.2l-1.3,0.7l-2.4-4.7
						L16.6,52.5z"/>
					<path class="st2" d="M16.6,69.1l1.2-3.2l-0.9-1.3l-2.3,1.6l-0.9-1.3l7-4.9l2,2.9c1.1,1.6,0.9,2.7-0.3,3.6l-0.9,0.6
						c-0.8,0.6-1.7,0.7-2.4,0.1l-1.3,3.5L16.6,69.1z M21.5,63.6l-1.1-1.5L18,63.8l1.1,1.5c0.5,0.7,0.9,0.8,1.5,0.4l0.7-0.5
						C21.9,64.7,22,64.3,21.5,63.6z"/>
					<path class="st2" d="M26.6,67.9l2.3,2.4c1.4,1.4,1.3,2.5,0.2,3.6l-0.9,0.8c-1.1,1-2.2,1-3.6-0.5L23.5,73l-2,1.9l-1.1-1.2
						L26.6,67.9z M27.7,71.2L26.6,70l-2.1,2l1.1,1.2c0.6,0.7,1.1,0.6,1.6,0.1l0.6-0.6C28.3,72.3,28.4,71.9,27.7,71.2z"/>
					<path class="st2" d="M34,82.9c-0.9,1.1-2.3,1.6-4.2,0c-1.9-1.5-1.8-3-0.9-4.1l2.2-2.8c0.9-1.1,2.3-1.6,4.2,0
						c1.9,1.5,1.8,3,0.9,4.1L34,82.9z M30.2,79.8c-0.5,0.6-0.5,1.3,0.5,2c0.9,0.8,1.6,0.6,2.1,0l2.1-2.6c0.5-0.6,0.5-1.3-0.5-2
						c-0.9-0.8-1.6-0.6-2.1,0L30.2,79.8z"/>
					<path class="st2" d="M43.9,89.5l4.6-5.1l1.4,0.8l-6,6.5l-1.9-1l1.9-6.8l-4.7,5.3l-1.9-1l2.2-8.6l1.4,0.8L39.2,87l4.5-5.1l1.9,1
						L43.9,89.5z"/>
					<path class="st2" d="M52.4,86l5,1.7l-0.5,1.4l-3.4-1.2l-0.7,2L56,91l-0.5,1.4l-3.2-1.1l-0.7,2.1l3.4,1.2L54.5,96l-5-1.7
						L52.4,86z"/>
					<path class="st2" d="M63.9,98l-1.4-3.2L61,94.5l-0.5,2.8L58.9,97l1.6-8.4l3.5,0.7c2,0.4,2.5,1.3,2.2,2.8L66,93.2
						c-0.2,1-0.7,1.6-1.7,1.8l1.5,3.4L63.9,98z M63.6,90.6l-1.8-0.3l-0.6,2.9l1.8,0.3c0.9,0.2,1.2-0.1,1.3-0.8l0.2-0.8
						C64.7,91.1,64.4,90.8,63.6,90.6z"/>
					<path class="st2" d="M74.7,97.2h1.6V99h-1.6V97.2z M74.7,93.2h1.6V95h-1.6V93.2z"/>
					<path class="st2" d="M84.5,92.3c-0.3-1.6,0.5-2.6,2.6-3c0.8-0.1,1.6-0.2,2.3-0.1l0.1,1.4c-0.7,0-1.5,0-2.1,0.1
						c-1.1,0.2-1.4,0.6-1.3,1.5l0.5,3.3c0.1,0.9,0.6,1.2,1.7,1c0.6-0.1,1.4-0.3,2-0.6l0.4,1.4c-0.7,0.3-1.5,0.5-2.3,0.7
						c-2.1,0.3-3.2-0.4-3.4-2L84.5,92.3z"/>
					<path class="st2" d="M100,92.4c0.4,1.4,0,2.8-2.3,3.5s-3.5-0.2-3.9-1.6l-1-3.4c-0.4-1.4,0-2.8,2.3-3.5s3.5,0.2,3.9,1.6
						L100,92.4z M95.3,93.7c0.2,0.8,0.8,1.1,1.9,0.8c1.2-0.4,1.4-0.9,1.2-1.7l-1-3.2c-0.2-0.8-0.8-1.1-1.9-0.8
						c-1.2,0.4-1.4,0.9-1.2,1.7L95.3,93.7z"/>
					<path class="st2" d="M109.3,89.8l-1.8,0.9l-3.4-3.3l2.3,5l-1.5,0.7l-3.5-7.9l1.6-0.8l4.7,4.5l-0.7-6.4l1.6-0.8l4.2,7.5
						l-1.5,0.7l-2.6-4.9L109.3,89.8z"/>
					<path class="st2" d="M120.5,82.7l-1.7,1.2l-3.9-2.6l3.2,4.5l-1.3,1l-4.8-7.1l1.5-1.1l5.4,3.6L117,76l1.5-1.1l5.4,6.7l-1.3,1
						l-3.4-4.4L120.5,82.7z"/>
					<path class="st2" d="M128.3,77.3l-1.2,1.1l-6-6.1l1.2-1.1L128.3,77.3z"/>
					<path class="st2" d="M127.1,68.2l-1.5,1.8l-1.1-0.9l4.1-4.9l1.1,0.9l-1.5,1.8l5.5,4.6l-1,1.3L127.1,68.2z"/>
					<path class="st2" d="M139.3,61.2l-1,1.8l-4.6-0.9l4.7,2.9l-0.8,1.4l-7.2-4.7l0.9-1.6l6.4,1.2l-4.1-5l0.9-1.6l7.6,4l-0.8,1.4
						l-4.9-2.7L139.3,61.2z"/>
					<path class="st2" d="M135.9,51.5l1.9-4.9l1.3,0.5l-1.3,3.4l1.9,0.8l1.2-3.1l1.3,0.5l-1.2,3.1l2.1,0.8l1.3-3.4l1.3,0.5l-1.9,4.9
						L135.9,51.5z"/>
					<path class="st2" d="M141.2,42.6l6.3,1.5l-0.4,1.5l-8.3-2l0.5-2.1l7.1-1.6l-6.3-1.5l0.4-1.5l8.3,2l-0.5,2.1L141.2,42.6z"/>
					<path class="st2" d="M142.6,31.8l-0.2,2.4l-1.4-0.1l0.6-6.4l1.4,0.1l-0.2,2.4l7.1,0.7l-0.1,1.6L142.6,31.8z"/>
				</g>
				<g>
					<g>
						<path class="st2" d="M5.8,12.1c-0.1,0-0.2,0-0.3,0c-0.8-0.1-1.3-0.9-1.2-1.7C5.1,6.2,6.2,2,7.8-2c0.3-0.7,1.1-1.1,1.9-0.8
							c0.7,0.3,1.1,1.1,0.8,1.9C9,2.9,7.9,6.9,7.2,11C7.1,11.6,6.5,12.1,5.8,12.1z M14.8-11.3c-0.3,0-0.5-0.1-0.8-0.2
							c-0.7-0.4-0.9-1.3-0.5-2c1.7-2.7,3.7-5.4,5.8-7.8c0.5-0.6,1.4-0.7,2.1-0.2c0.6,0.5,0.7,1.4,0.2,2.1c-2,2.4-3.9,4.9-5.5,7.5
							C15.8-11.5,15.3-11.3,14.8-11.3z"/>
					</g>
				</g>
				<g>
					<g>
						<path class="st2" d="M144,13.3c-0.7,0-1.3-0.5-1.4-1.2C142,8,141,4,139.6,0.2c-0.3-0.8,0.1-1.6,0.9-1.9s1.6,0.1,1.9,0.9
							c1.4,4,2.5,8.2,3.2,12.5c0.1,0.8-0.4,1.5-1.2,1.7C144.1,13.2,144,13.3,144,13.3z M135.5-10.3c-0.5,0-0.9-0.3-1.2-0.7
							c-1.6-2.7-3.4-5.2-5.3-7.6c-0.5-0.6-0.4-1.5,0.2-2s1.5-0.4,2,0.2c2.1,2.5,3.9,5.2,5.6,8c0.4,0.7,0.2,1.6-0.5,2
							C136-10.4,135.8-10.3,135.5-10.3z"/>
					</g>
				</g>
			</g>
		</g>
		<g id="Outline_Icons_1_">
			<g>
				<g>
					<path class="st2" d="M75.5,61.2c-0.1,0-0.3,0-0.4-0.1C47,50.7,44.7,30.6,44.7,5.4c0-0.5,0.4-1,0.9-1.2c0.2-0.1,21.9-6,29-13
						c0.5-0.5,1.3-0.5,1.8,0c7,7.1,28.8,13,29,13c0.5,0.1,0.9,0.6,0.9,1.2c0,25.2-2.2,45.3-30.3,55.7C75.8,61.1,75.6,61.2,75.5,61.2
						z M47.2,6.3c0.1,23.7,2.4,42.6,28.3,52.4c25.9-9.8,28.3-28.7,28.3-52.4c-4.1-1.2-21-6.2-28.3-12.6C68.2,0,51.3,5.1,47.2,6.3z"
						/>
				</g>
				<g>
					<path class="st3" d="M75.7,2.6L55.4,22.9c0.3,3.4,0.9,6.5,1.9,9.4L82.8,6.8C80.1,5.6,77.5,4.2,75.7,2.6z"/>
					<path class="st3" d="M85.1,7.9l-26.8,27c1.1,2.5,2.6,4.8,4.5,6.8l30.8-30.8C91.3,10.2,88.2,9.2,85.1,7.9z"/>
					<path class="st3" d="M54.9,11.7c0,2.8,0.1,5.5,0.2,8.1L67.9,7C62.7,9.3,57.1,11.1,54.9,11.7z"/>
					<path class="st3" d="M73.6,49c0.6,0.3,1.3,0.5,1.9,0.8C88.1,45,93.1,37.4,95,27.6L73.6,49z"/>
					<path class="st3" d="M95.6,23.6C96,20,96.1,16,96.1,11.8L64.5,43.4c1.9,1.7,4.1,3.2,6.8,4.5L95.6,23.6z"/>
					<path class="st2" d="M97.8,9.5c-0.2-0.1-16.1-4.4-21.3-9.6c-0.5-0.5-1.3-0.5-1.8,0c-5.2,5.2-21.1,9.6-21.3,9.6
						c-0.5,0.2-0.9,0.7-0.9,1.2c0,4,0.1,7.9,0.4,11.5c-0.1,0.3-0.1,0.6,0.1,0.9c0.4,4.1,1.2,8,2.6,11.5c0,0.2,0.1,0.4,0.3,0.6
						c1.4,3.3,3.3,6.4,6.1,9l0,0c0,0,0,0,0.1,0c3.2,3.1,7.5,5.7,13.1,7.9c0.1,0.1,0.3,0.1,0.4,0.1s0.3,0,0.6-0.1
						C97,44.4,98.7,29.5,98.7,10.7C98.7,10.1,98.3,9.6,97.8,9.5z M54.9,11.7c2.2-0.6,7.8-2.4,13-4.7L55.1,19.8
						C55,17.2,54.9,14.5,54.9,11.7z M55.4,22.9L75.7,2.6c1.9,1.5,4.4,3,7.1,4.2L57.3,32.3C56.3,29.4,55.7,26.3,55.4,22.9z
						 M58.3,34.9L85.2,7.8c3.1,1.3,6.2,2.3,8.4,3.1L62.7,41.8C60.8,39.7,59.4,37.4,58.3,34.9z M96.1,11.8c0,4.2-0.1,8.2-0.5,11.8
						L71.3,47.9c-2.7-1.3-4.9-2.8-6.8-4.5L96.1,11.8z M75.5,49.8c-0.7-0.3-1.3-0.5-1.9-0.8L95,27.6C93.1,37.4,88.1,45,75.5,49.8z"/>
				</g>
			</g>
		</g>
	</g>
</g>
<g id="XMLID_147_">
	<g id="Outline_Icons_28_">
		<g id="XMLID_150_">
			<g id="XMLID_159_">
				<path d="M100.4,61.6H50.3c-3,0-5.4-2.4-5.4-5.4V-3.5c0-3,2.4-5.4,5.4-5.4h3.6c0.8,0,1.5,0.7,1.5,1.5s-0.7,1.5-1.5,1.5h-3.6
					C49-5.9,48-4.8,48-3.5v59.7c0,1.3,1.1,2.4,2.4,2.4h50.1c1.3,0,2.4-1.1,2.4-2.4V-3.5c0-1.3-1.1-2.4-2.4-2.4h-3.6
					c-0.8,0-1.5-0.7-1.5-1.5s0.7-1.5,1.5-1.5h3.6c3,0,5.4,2.4,5.4,5.4v59.7C105.8,59.2,103.4,61.6,100.4,61.6z"/>
			</g>
			<g id="XMLID_158_">
				<path d="M88.2,0.5H62.5c-2.6,0-4.7-2.1-4.7-4.7s2.1-4.7,4.7-4.7h3.8c0.7,0,1.4-0.4,1.6-1.1c1.1-3.2,4.1-5.3,7.5-5.3
					c3.4,0,6.4,2.1,7.5,5.3c0.2,0.7,0.9,1.1,1.6,1.1h3.8c2.6,0,4.7,2.1,4.7,4.7S90.8,0.5,88.2,0.5z M62.5-5.9
					c-0.9,0-1.7,0.8-1.7,1.7s0.8,1.7,1.7,1.7h25.7c0.9,0,1.7-0.8,1.7-1.7s-0.8-1.7-1.7-1.7h-3.8c-2,0-3.8-1.3-4.4-3.1
					c-0.7-2-2.6-3.3-4.7-3.3c-2.1,0-4,1.3-4.7,3.3c-0.6,1.9-2.4,3.1-4.4,3.1H62.5z"/>
			</g>
			<g id="XMLID_157_">
				<path d="M97.9,55.1h-45c-0.8,0-1.5-0.7-1.5-1.5V-1c0-0.8,0.7-1.5,1.5-1.5s1.5,0.7,1.5,1.5v53.1h42V-1c0-0.8,0.7-1.5,1.5-1.5
					s1.5,0.7,1.5,1.5v54.6C99.4,54.5,98.7,55.1,97.9,55.1z"/>
			</g>
			<g id="XMLID_156_">
				<path d="M88.2,13.4H71.8c-0.8,0-1.5-0.7-1.5-1.5s0.7-1.5,1.5-1.5h16.4c0.8,0,1.5,0.7,1.5,1.5S89.1,13.4,88.2,13.4z"/>
			</g>
			<g id="XMLID_155_">
				<path d="M88.2,23H71.8c-0.8,0-1.5-0.7-1.5-1.5S71,20,71.8,20h16.4c0.8,0,1.5,0.7,1.5,1.5S89.1,23,88.2,23z"/>
			</g>
			<g id="XMLID_154_">
				<path d="M88.2,32.6H71.8c-0.8,0-1.5-0.7-1.5-1.5s0.7-1.5,1.5-1.5h16.4c0.8,0,1.5,0.7,1.5,1.5S89.1,32.6,88.2,32.6z"/>
			</g>
			<g id="XMLID_153_">
				<path d="M88.2,42.3H71.8c-0.8,0-1.5-0.7-1.5-1.5s0.7-1.5,1.5-1.5h16.4c0.8,0,1.5,0.7,1.5,1.5S89.1,42.3,88.2,42.3z"/>
			</g>
			<g id="XMLID_152_">
				<path d="M62.5,23h-1.6c-0.8,0-1.5-0.7-1.5-1.5s0.7-1.5,1.5-1.5h1.6c0.8,0,1.5,0.7,1.5,1.5S63.4,23,62.5,23z"/>
			</g>
			<g id="XMLID_151_">
				<path d="M62.5,42.3h-1.6c-0.8,0-1.5-0.7-1.5-1.5s0.7-1.5,1.5-1.5h1.6c0.8,0,1.5,0.7,1.5,1.5S63.4,42.3,62.5,42.3z"/>
			</g>
		</g>
	</g>
	<g id="XMLID_149_">
		<path d="M62,33.9c-0.4,0-0.8-0.2-1.1-0.4l-2-2c-0.6-0.6-0.6-1.5,0-2.1s1.5-0.6,2.1,0l0.8,0.8l2.8-3.6c0.5-0.7,1.5-0.8,2.1-0.3
			c0.7,0.5,0.8,1.5,0.3,2.1l-3.8,4.9C62.9,33.7,62.5,33.9,62,33.9C62,33.9,62,33.9,62,33.9z"/>
	</g>
	<g id="XMLID_148_">
		<path d="M62,15.9c-0.4,0-0.8-0.2-1.1-0.4l-2-2c-0.6-0.6-0.6-1.5,0-2.1c0.6-0.6,1.5-0.6,2.1,0l0.8,0.8l2.8-3.6
			c0.5-0.7,1.5-0.8,2.1-0.3c0.7,0.5,0.8,1.5,0.3,2.1l-3.8,4.9C62.9,15.6,62.5,15.8,62,15.9C62,15.9,62,15.9,62,15.9z"/>
	</g>
</g>
</svg>
