<?xml version="1.0" encoding="utf-8"?>
<!-- Generator: Adobe Illustrator 19.0.0, SVG Export Plug-In . SVG Version: 6.00 Build 0)  -->
<svg version="1.1" id="Layer_1" xmlns="http://www.w3.org/2000/svg" xmlns:xlink="http://www.w3.org/1999/xlink" x="0px" y="0px"
	 width="100px" height="100px" viewBox="0 0 100 100" style="enable-background:new 0 0 100 100;" xml:space="preserve">
<style type="text/css">
	.st0{display:none;}
	.st1{display:inline;}
	.st2{fill:#010101;}
	.st3{fill:none;}
</style>
<g id="Layer_5" class="st0">
	<g class="st1">
		<g class="st0">
			<g class="st1">
				<g>
					<path class="st2" d="M50.5,106.2c-31.2,0-56.7-25.4-56.7-56.7c0-31.2,25.4-56.7,56.7-56.7s56.7,25.4,56.7,56.7
						C107.2,80.7,81.7,106.2,50.5,106.2z M50.5-4.2C20.9-4.2-3.2,19.9-3.2,49.5s24.1,53.7,53.7,53.7s53.7-24.1,53.7-53.7
						S80.1-4.2,50.5-4.2z"/>
				</g>
				<g>
					<path class="st2" d="M50.5,136.1c-47.7,0-86.6-38.8-86.6-86.6c0-47.7,38.8-86.6,86.6-86.6s86.6,38.8,86.6,86.6
						C137.1,97.2,98.2,136.1,50.5,136.1z M50.5-34.2c-46.1,0-83.7,37.6-83.7,83.7s37.5,83.7,83.7,83.7s83.7-37.5,83.7-83.7
						S96.6-34.2,50.5-34.2z"/>
				</g>
				<g>
					<path class="st2" d="M16.8-8.3l-3.7,2l0.5,2.4l-2,1.1L9.3-14.5l2.6-1.4l8.6,8.2l-2,1.1L16.8-8.3z M12.7-8.1l2.8-1.5l-4-4
						L12.7-8.1z"/>
					<path class="st2" d="M25.4-21.5c2.7-0.9,4,0.2,4.5,1.8l1.6,5c0.5,1.5,0,3.2-2.7,4.1l-4,1.3l-3.5-10.8L25.4-21.5z M26.3-11.9
						l1.8-0.6c1.4-0.4,1.6-1.1,1.2-2.2l-1.3-4c-0.3-1-0.9-1.5-2.3-1L24-19.1L26.3-11.9z"/>
					<path class="st2" d="M42.5-25.1l2.2-0.3l-1.9,11.7l-3.2,0.4l-4.8-10.9l2.2-0.3l4,9.1L42.5-25.1z"/>
					<path class="st2" d="M52.9-14h-2.2l0.2-11.4h2.2L52.9-14z"/>
					<path class="st2" d="M61.5-13c-1.3-0.2-2.7-0.8-3.4-1.2l0.6-1.6c1,0.5,2,0.9,3.1,1c1.5,0.2,1.8,0,2-1.1C64-17.1,64-17.3,62-18
						c-2.6-1-2.9-1.6-2.5-4c0.3-2,1.4-2.9,4.3-2.4c1,0.2,2.1,0.5,3.2,0.9l-0.5,1.8c-0.9-0.4-2-0.7-3-0.8c-1.4-0.2-1.7,0-1.9,1
						c-0.2,1.3-0.2,1.3,1.7,2.1c2.9,1.2,3,1.7,2.6,4C65.7-13.5,64.9-12.5,61.5-13z"/>
					<path class="st2" d="M79.4-11.7c-0.6,1.8-2.2,2.9-5.2,1.9c-3-1.1-3.5-2.9-2.9-4.7l1.6-4.5c0.6-1.8,2.2-2.9,5.2-1.9
						c3,1.1,3.5,2.9,2.9,4.7L79.4-11.7z M73.4-13.9c-0.4,1-0.1,1.8,1.5,2.3c1.5,0.5,2.2,0.1,2.6-0.9l1.5-4.2c0.4-1,0.1-1.8-1.5-2.3
						c-1.5-0.5-2.2-0.1-2.6,0.9L73.4-13.9z"/>
					<path class="st2" d="M88.9-2.9l-0.4-4.6l-1.8-1l-1.9,3.2l-1.9-1.1l5.8-9.8l4,2.4c2.3,1.3,2.6,2.8,1.6,4.5L93.5-8
						c-0.7,1.2-1.6,1.7-2.9,1.5L91-1.6L88.9-2.9z M91.8-12.2l-2.1-1.2l-2,3.3l2.1,1.2c1,0.6,1.6,0.4,2-0.4l0.6-1
						C92.9-11.1,92.8-11.6,91.8-12.2z"/>
				</g>
				<g>
					<path class="st2" d="M-23,54.2c-0.1-1,0.1-2.1,0.4-2.7l1.3,0.2c-0.2,0.8-0.3,1.6-0.3,2.4c0.1,1.2,0.3,1.3,1.1,1.3
						c1-0.1,1-0.1,1.3-1.7c0.3-2.1,0.7-2.4,2.5-2.5c1.6-0.1,2.4,0.6,2.5,2.7c0,0.7,0,1.7-0.1,2.5l-1.4-0.1c0.1-0.7,0.2-1.6,0.1-2.3
						c-0.1-1.1-0.3-1.3-1.1-1.2c-1,0.1-1,0.1-1.3,1.6c-0.4,2.3-0.8,2.5-2.5,2.6C-22,57.2-22.9,56.7-23,54.2z"/>
					<path class="st2" d="M-12.5,66l-6,1.2c-1.3,0.3-2.7-0.2-3.2-2.6s0.6-3.4,1.9-3.6l6-1.2l0.3,1.6l-5.8,1.2
						c-0.8,0.2-1.2,0.7-1,1.8c0.2,1.1,0.8,1.4,1.6,1.3l5.8-1.2L-12.5,66z"/>
					<path class="st2" d="M-11.6,69.2l1.1,3.2c0.7,1.9,0.1,2.8-1.3,3.3l-1.1,0.4c-1.4,0.5-2.4,0-3.1-1.9l-0.6-1.6l-2.6,0.9l-0.5-1.5
						L-11.6,69.2z M-11.8,72.8l-0.5-1.5l-2.8,1l0.5,1.5c0.3,0.9,0.7,1,1.4,0.8l0.8-0.3C-11.7,74-11.5,73.6-11.8,72.8z"/>
					<path class="st2" d="M-8.4,77.5l2.4,4.7l-1.3,0.7L-9,79.7l-1.8,0.9l1.5,3l-1.3,0.7l-1.5-3l-2,1l1.7,3.2l-1.3,0.7l-2.4-4.7
						L-8.4,77.5z"/>
					<path class="st2" d="M-8.4,94.1l1.2-3.2l-0.9-1.3l-2.3,1.6l-0.9-1.3l7-4.9l2,2.9c1.1,1.6,0.9,2.7-0.3,3.6l-0.9,0.6
						c-0.8,0.6-1.7,0.7-2.4,0.1l-1.3,3.5L-8.4,94.1z M-3.5,88.6l-1.1-1.5L-7,88.8l1.1,1.5c0.5,0.7,0.9,0.8,1.5,0.4l0.7-0.5
						C-3.1,89.7-3,89.3-3.5,88.6z"/>
					<path class="st2" d="M1.6,92.9l2.3,2.4c1.4,1.4,1.3,2.5,0.2,3.6l-0.9,0.8c-1.1,1-2.2,1-3.6-0.5L-1.5,98l-2,1.9l-1.1-1.2
						L1.6,92.9z M2.7,96.2L1.6,95l-2.1,2l1.1,1.2c0.6,0.7,1.1,0.6,1.6,0.1l0.6-0.6C3.3,97.3,3.4,96.9,2.7,96.2z"/>
					<path class="st2" d="M9,107.9c-0.9,1.1-2.3,1.6-4.2,0c-1.9-1.5-1.8-3-0.9-4.1l2.2-2.8c0.9-1.1,2.3-1.6,4.2,0
						c1.9,1.5,1.8,3,0.9,4.1L9,107.9z M5.2,104.8c-0.5,0.6-0.5,1.3,0.5,2c0.9,0.8,1.6,0.6,2.1,0l2.1-2.6c0.5-0.6,0.5-1.3-0.5-2
						c-0.9-0.8-1.6-0.6-2.1,0L5.2,104.8z"/>
					<path class="st2" d="M18.9,114.5l4.6-5.1l1.4,0.8l-6,6.5l-1.9-1l1.9-6.8l-4.7,5.3l-1.9-1l2.2-8.6l1.4,0.8l-1.7,6.6l4.5-5.1
						l1.9,1L18.9,114.5z"/>
					<path class="st2" d="M27.4,111l5,1.7l-0.5,1.4l-3.4-1.2l-0.7,2L31,116l-0.5,1.4l-3.2-1.1l-0.7,2.1l3.4,1.2l-0.5,1.4l-5-1.7
						L27.4,111z"/>
					<path class="st2" d="M38.9,123l-1.4-3.2l-1.5-0.3l-0.5,2.8l-1.6-0.3l1.6-8.4l3.5,0.7c2,0.4,2.5,1.3,2.2,2.8l-0.2,1.1
						c-0.2,1-0.7,1.6-1.7,1.8l1.5,3.4L38.9,123z M38.6,115.6l-1.8-0.3l-0.6,2.9l1.8,0.3c0.9,0.2,1.2-0.1,1.3-0.8l0.2-0.8
						C39.7,116.1,39.4,115.8,38.6,115.6z"/>
					<path class="st2" d="M49.7,122.2h1.6v1.8h-1.6V122.2z M49.7,118.2h1.6v1.8h-1.6V118.2z"/>
					<path class="st2" d="M59.5,117.3c-0.3-1.6,0.5-2.6,2.6-3c0.8-0.1,1.6-0.2,2.3-0.1l0.1,1.4c-0.7,0-1.5,0-2.1,0.1
						c-1.1,0.2-1.4,0.6-1.3,1.5l0.5,3.3c0.1,0.9,0.6,1.2,1.7,1c0.6-0.1,1.4-0.3,2-0.6l0.4,1.4c-0.7,0.3-1.5,0.5-2.3,0.7
						c-2.1,0.3-3.2-0.4-3.4-2L59.5,117.3z"/>
					<path class="st2" d="M75,117.4c0.4,1.4,0,2.8-2.3,3.5s-3.5-0.2-3.9-1.6l-1-3.4c-0.4-1.4,0-2.8,2.3-3.5s3.5,0.2,3.9,1.6
						L75,117.4z M70.3,118.7c0.2,0.8,0.8,1.1,1.9,0.8c1.2-0.4,1.4-0.9,1.2-1.7l-1-3.2c-0.2-0.8-0.8-1.1-1.9-0.8
						c-1.2,0.4-1.4,0.9-1.2,1.7L70.3,118.7z"/>
					<path class="st2" d="M84.3,114.8l-1.8,0.9l-3.4-3.3l2.3,5l-1.5,0.7l-3.5-7.9l1.6-0.8l4.7,4.5l-0.7-6.4l1.6-0.8l4.2,7.5
						l-1.5,0.7l-2.6-4.9L84.3,114.8z"/>
					<path class="st2" d="M95.5,107.7l-1.7,1.2l-3.9-2.6l3.2,4.5l-1.3,1l-4.8-7.1l1.5-1.1l5.4,3.6L92,101l1.5-1.1l5.4,6.7l-1.3,1
						l-3.4-4.4L95.5,107.7z"/>
					<path class="st2" d="M103.3,102.3l-1.2,1.1l-6-6.1l1.2-1.1L103.3,102.3z"/>
					<path class="st2" d="M102.1,93.2l-1.5,1.8l-1.1-0.9l4.1-4.9l1.1,0.9l-1.5,1.8l5.5,4.6l-1,1.3L102.1,93.2z"/>
					<path class="st2" d="M114.3,86.2l-1,1.8l-4.6-0.9l4.7,2.9l-0.8,1.4l-7.2-4.7l0.9-1.6l6.4,1.2l-4.1-5l0.9-1.6l7.6,4l-0.8,1.4
						l-4.9-2.7L114.3,86.2z"/>
					<path class="st2" d="M110.9,76.5l1.9-4.9l1.3,0.5l-1.3,3.4l1.9,0.8l1.2-3.1l1.3,0.5l-1.2,3.1l2.1,0.8l1.3-3.4l1.3,0.5l-1.9,4.9
						L110.9,76.5z"/>
					<path class="st2" d="M116.2,67.6l6.3,1.5l-0.4,1.5l-8.3-2l0.5-2.1l7.1-1.6l-6.3-1.5l0.4-1.5l8.3,2l-0.5,2.1L116.2,67.6z"/>
					<path class="st2" d="M117.6,56.8l-0.2,2.4l-1.4-0.1l0.6-6.4l1.4,0.1l-0.2,2.4l7.1,0.7l-0.1,1.6L117.6,56.8z"/>
				</g>
				<g>
					<g>
						<path class="st2" d="M-19.2,37.1c-0.1,0-0.2,0-0.3,0c-0.8-0.1-1.3-0.9-1.2-1.7c0.8-4.2,1.9-8.4,3.5-12.4
							c0.3-0.7,1.1-1.1,1.9-0.8c0.7,0.3,1.1,1.1,0.8,1.9c-1.5,3.8-2.6,7.8-3.3,11.9C-17.9,36.6-18.5,37.1-19.2,37.1z M-10.2,13.7
							c-0.3,0-0.5-0.1-0.8-0.2c-0.7-0.4-0.9-1.3-0.5-2c1.7-2.7,3.7-5.4,5.8-7.8C-5.2,3.1-4.3,3-3.6,3.5C-3,4-2.9,4.9-3.4,5.6
							c-2,2.4-3.9,4.9-5.5,7.5C-9.2,13.5-9.7,13.7-10.2,13.7z"/>
					</g>
				</g>
				<g>
					<g>
						<path class="st2" d="M119,38.3c-0.7,0-1.3-0.5-1.4-1.2c-0.6-4.1-1.6-8.1-3-11.9c-0.3-0.8,0.1-1.6,0.9-1.9
							c0.8-0.3,1.6,0.1,1.9,0.9c1.4,4,2.5,8.2,3.2,12.5c0.1,0.8-0.4,1.5-1.2,1.7C119.1,38.2,119,38.3,119,38.3z M110.5,14.7
							c-0.5,0-0.9-0.3-1.2-0.7c-1.6-2.7-3.4-5.2-5.3-7.6c-0.5-0.6-0.4-1.5,0.2-2c0.6-0.5,1.5-0.4,2,0.2c2.1,2.5,3.9,5.2,5.6,8
							c0.4,0.7,0.2,1.6-0.5,2C111,14.6,110.8,14.7,110.5,14.7z"/>
					</g>
				</g>
			</g>
		</g>
		<g id="Outline_Icons_1_">
			<g>
				<g>
					<path class="st2" d="M50.5,86.2c-0.1,0-0.3,0-0.4-0.1C22,75.7,19.7,55.6,19.7,30.4c0-0.5,0.4-1,0.9-1.2c0.2-0.1,21.9-6,29-13
						c0.5-0.5,1.3-0.5,1.8,0c7,7.1,28.8,13,29,13c0.5,0.1,0.9,0.6,0.9,1.2c0,25.2-2.2,45.3-30.3,55.7C50.8,86.1,50.6,86.2,50.5,86.2
						z M22.2,31.3c0.1,23.7,2.4,42.6,28.3,52.4C76.4,73.9,78.8,55,78.8,31.3c-4.1-1.2-21-6.2-28.3-12.6C43.2,25,26.3,30.1,22.2,31.3
						z"/>
				</g>
				<g>
					<path class="st3" d="M50.7,27.6L30.4,47.9c0.3,3.4,0.9,6.5,1.9,9.4l25.5-25.5C55.1,30.6,52.5,29.2,50.7,27.6z"/>
					<path class="st3" d="M60.1,32.9L33.3,59.9c1.1,2.5,2.6,4.8,4.5,6.8l30.8-30.8C66.3,35.2,63.2,34.2,60.1,32.9z"/>
					<path class="st3" d="M29.9,36.7c0,2.8,0.1,5.5,0.2,8.1L42.9,32C37.7,34.3,32.1,36.1,29.9,36.7z"/>
					<path class="st3" d="M48.6,74c0.6,0.3,1.3,0.5,1.9,0.8C63.1,70,68.1,62.4,70,52.6L48.6,74z"/>
					<path class="st3" d="M70.6,48.6C71,45,71.1,41,71.1,36.8L39.5,68.4c1.9,1.7,4.1,3.2,6.8,4.5L70.6,48.6z"/>
					<path class="st2" d="M72.8,34.5c-0.2-0.1-16.1-4.4-21.3-9.6c-0.5-0.5-1.3-0.5-1.8,0c-5.2,5.2-21.1,9.6-21.3,9.6
						c-0.5,0.2-0.9,0.7-0.9,1.2c0,4,0.1,7.9,0.4,11.5c-0.1,0.3-0.1,0.6,0.1,0.9c0.4,4.1,1.2,8,2.6,11.5c0,0.2,0.1,0.4,0.3,0.6
						c1.4,3.3,3.3,6.4,6.1,9c0,0,0,0,0,0c0,0,0,0,0.1,0c3.2,3.1,7.5,5.7,13.1,7.9c0.1,0.1,0.3,0.1,0.4,0.1s0.3,0,0.6-0.1
						C72,69.4,73.7,54.5,73.7,35.7C73.7,35.1,73.3,34.6,72.8,34.5z M29.9,36.7c2.2-0.6,7.8-2.4,13-4.7L30.1,44.8
						C30,42.2,29.9,39.5,29.9,36.7z M30.4,47.9l20.3-20.3c1.9,1.5,4.4,3,7.1,4.2L32.3,57.3C31.3,54.4,30.7,51.3,30.4,47.9z
						 M33.3,59.9l26.9-27.1c3.1,1.3,6.2,2.3,8.4,3.1L37.7,66.8C35.8,64.7,34.4,62.4,33.3,59.9z M71.1,36.8c0,4.2-0.1,8.2-0.5,11.8
						L46.3,72.9c-2.7-1.3-4.9-2.8-6.8-4.5L71.1,36.8z M50.5,74.8c-0.7-0.3-1.3-0.5-1.9-0.8L70,52.6C68.1,62.4,63.1,70,50.5,74.8z"/>
				</g>
			</g>
		</g>
	</g>
</g>
<g id="Layer_6">
	<g id="New_Symbol_15" class="st0">
	</g>
	<g id="New_Symbol_12">
	</g>
	<g id="New_Symbol_11">
	</g>
	<g id="New_Symbol_14">
	</g>
	<g id="New_Symbol_13">
	</g>
	<g>
		<g class="st0">
			<g class="st1">
				<g>
					<path class="st2" d="M50.5,137.2c-47.8,0-86.8-38.9-86.8-86.8c0-47.8,38.9-86.8,86.8-86.8s86.8,38.9,86.8,86.8
						C137.2,98.3,98.3,137.2,50.5,137.2z M50.5-33.3c-46.2,0-83.8,37.6-83.8,83.8s37.6,83.8,83.8,83.8s83.8-37.6,83.8-83.8
						S96.7-33.3,50.5-33.3z"/>
				</g>
				<g>
					<path class="st2" d="M50.5,107.3c-31.3,0-56.8-25.5-56.8-56.8S19.2-6.3,50.5-6.3s56.8,25.5,56.8,56.8S81.8,107.3,50.5,107.3z
						 M50.5-3.3C20.8-3.3-3.3,20.9-3.3,50.5c0,29.7,24.2,53.8,53.8,53.8c29.7,0,53.8-24.2,53.8-53.8C104.3,20.8,80.2-3.3,50.5-3.3z"
						/>
				</g>
				<g>
					<path class="st2" d="M14-7.1c1,1.6,1,3.6-1.8,5.3c-2.7,1.7-4.5,1-5.5-0.7l-2.5-4c-1-1.6-1-3.6,1.8-5.3c2.7-1.7,4.5-1,5.5,0.7
						L14-7.1z M8.5-3.7c0.6,0.9,1.4,1.2,2.7,0.3c1.4-0.9,1.5-1.7,0.9-2.6L9.7-9.8C9.1-10.7,8.3-11,7-10.1C5.6-9.2,5.5-8.4,6.1-7.5
						L8.5-3.7z"/>
					<path class="st2" d="M26.8-9.1L23-11.7l-1.9,0.8l1.4,3.5l-2,0.8l-4.2-10.6l4.4-1.7c2.5-1,3.8-0.3,4.5,1.5l0.5,1.4
						c0.5,1.3,0.4,2.4-0.6,3.2l4.1,2.8L26.8-9.1z M21.2-17.2L19-16.3l1.4,3.6l2.3-0.9c1.1-0.4,1.3-1,0.9-1.9l-0.4-1.1
						C22.8-17.4,22.3-17.6,21.2-17.2z"/>
					<path class="st2" d="M35.9-11.7l-2.1,0.5l-2.5-11.1l2.1-0.5L35.9-11.7z"/>
					<path class="st2" d="M43.2-16.3c0.1,1.1,0.6,1.7,2.1,1.6c0.6,0,1.2-0.1,1.8-0.3l-0.3-3.5l2-0.1l0.4,5c-1.2,0.4-2.6,0.7-3.8,0.8
						c-2.8,0.2-4.2-0.9-4.4-3.1l-0.4-4.9c-0.2-2.3,1.1-3.5,4.1-3.8c0.9-0.1,2.2-0.1,3.3,0.1l-0.1,1.9c-1.1-0.1-2.1-0.2-3.2-0.1
						c-1.5,0.1-2,0.8-1.9,1.9L43.2-16.3z"/>
					<path class="st2" d="M56.8-12.9L54.6-13l0.8-11.4l2.2,0.2L56.8-12.9z"/>
					<path class="st2" d="M66.4-20.2l-2,8.4l-2.1-0.5l2.6-11.1l2.8,0.7l2.2,9.4l2-8.4l2.1,0.5l-2.6,11.1l-2.8-0.7L66.4-20.2z"/>
					<path class="st2" d="M83.3-7.9l-3.8-1.8l-1.6,1.8l-2.1-0.9l8-8.9l2.7,1.3L85-4.5l-2.1-0.9L83.3-7.9z M80.7-11.1l2.9,1.3
						l0.8-5.6L80.7-11.1z"/>
					<path class="st2" d="M91.9-2.3l3.9,2.7L94.7,2L89-2l6.5-9.4l1.8,1.2L91.9-2.3z"/>
				</g>
				<g>
					<path class="st2" d="M-20.5,57c0-0.9,0.1-2.1,0.4-2.6l1.2,0.2c-0.2,0.8-0.3,1.5-0.3,2.4c0.1,1.1,0.3,1.3,1.1,1.3
						c0.9,0,1-0.1,1.2-1.6c0.3-2,0.7-2.3,2.5-2.4c1.5-0.1,2.3,0.6,2.4,2.7c0,0.7,0,1.6-0.2,2.4l-1.3-0.1c0.1-0.7,0.2-1.5,0.1-2.2
						c-0.1-1.1-0.3-1.2-1-1.2c-0.9,0-1,0.1-1.2,1.5c-0.4,2.3-0.8,2.4-2.4,2.5C-19.5,59.9-20.4,59.5-20.5,57z"/>
					<path class="st2" d="M-10.3,69l-5.8,1.2c-1.3,0.3-2.6-0.2-3.1-2.5s0.6-3.2,1.9-3.5l5.8-1.2l0.3,1.5l-5.7,1.1
						c-0.8,0.2-1.2,0.6-1,1.7s0.7,1.4,1.5,1.2l5.7-1.1L-10.3,69z"/>
					<path class="st2" d="M-9.2,72.8l1.1,3c0.7,1.8,0.2,2.7-1.2,3.2l-1.1,0.4c-1.4,0.5-2.4,0-3-1.8l-0.5-1.5l-2.5,0.9l-0.5-1.5
						L-9.2,72.8z M-9.4,76.2l-0.5-1.5l-2.7,1l0.5,1.5c0.3,0.8,0.7,1,1.3,0.7l0.8-0.3C-9.3,77.4-9.1,77-9.4,76.2z"/>
					<path class="st2" d="M-5.8,81.3l2.4,4.5l-1.2,0.7l-1.7-3.1l-1.8,1l1.5,2.9L-7.8,88l-1.5-2.9l-1.9,1l1.7,3.1l-1.2,0.7l-2.4-4.5
						L-5.8,81.3z"/>
					<path class="st2" d="M-5.1,97.9l1.1-3.2l-0.9-1.2l-2.2,1.6L-8,93.8l6.6-5l2,2.7c1.2,1.5,1,2.6-0.2,3.5l-0.9,0.6
						c-0.8,0.6-1.6,0.7-2.4,0.2L-4,99.2L-5.1,97.9z M-0.5,92.5l-1.1-1.4l-2.3,1.7l1.1,1.4c0.5,0.7,0.9,0.7,1.5,0.3l0.7-0.5
						C0,93.5,0,93.1-0.5,92.5z"/>
					<path class="st2" d="M4.9,96.9l2.3,2.3c1.4,1.3,1.3,2.4,0.3,3.4l-0.8,0.8c-1,1-2.1,1-3.5-0.3L2.1,102l-1.9,1.9l-1.1-1.1
						L4.9,96.9z M6.2,100.1L5.1,99l-2,2l1.1,1.1c0.6,0.6,1,0.6,1.5,0.1l0.6-0.6C6.8,101.1,6.8,100.7,6.2,100.1z"/>
					<path class="st2" d="M13.2,111.5c-0.8,1.1-2.1,1.6-4,0.2c-1.9-1.4-1.9-2.8-1.1-3.9l2-2.8c0.8-1.1,2.1-1.6,4-0.2
						c1.9,1.4,1.9,2.8,1.1,3.9L13.2,111.5z M9.5,108.6c-0.5,0.6-0.4,1.3,0.5,1.9c1,0.7,1.6,0.5,2-0.1l1.9-2.6
						c0.5-0.6,0.4-1.3-0.5-1.9c-1-0.7-1.6-0.5-2,0.1L9.5,108.6z"/>
					<path class="st2" d="M23.7,117.7l4.2-5.1l1.4,0.7l-5.4,6.6L22,119l1.5-6.7l-4.2,5.4l-1.9-0.9l1.7-8.4l1.4,0.7l-1.3,6.5l4.1-5.2
						l1.9,0.9L23.7,117.7z"/>
					<path class="st2" d="M32.4,114l4.9,1.3l-0.4,1.3l-3.4-0.9l-0.5,1.9l3.1,0.8l-0.4,1.3l-3.1-0.8L32,121l3.4,0.9l-0.4,1.3
						l-4.9-1.3L32.4,114z"/>
					<path class="st2" d="M44.9,124.9l-1.6-2.9l-1.5-0.2l-0.3,2.7l-1.6-0.2l0.9-8.2l3.4,0.4c1.9,0.2,2.5,1.1,2.4,2.5l-0.1,1.1
						c-0.1,1-0.6,1.6-1.5,1.9l1.7,3.2L44.9,124.9z M44.1,117.8l-1.8-0.2l-0.3,2.8l1.8,0.2c0.9,0.1,1.2-0.2,1.2-0.9l0.1-0.8
						C45.1,118.2,44.9,117.9,44.1,117.8z"/>
					<path class="st2" d="M56.2,119.4l1.5-0.1l0.2,1.7l-1.5,0.1L56.2,119.4z M56.5,123.2l1.5-0.1l0.2,1.7l-1.5,0.1L56.5,123.2z"/>
					<path class="st2" d="M66.7,117.3c-0.4-1.5,0.2-2.6,2.2-3.1c0.7-0.2,1.5-0.3,2.2-0.4l0.2,1.4c-0.7,0.1-1.5,0.2-2,0.4
						c-1,0.3-1.3,0.8-1,1.6l0.9,3.1c0.2,0.8,0.7,1.1,1.7,0.8c0.6-0.2,1.3-0.5,1.9-0.8l0.5,1.3c-0.6,0.4-1.3,0.7-2.1,0.9
						c-2,0.6-3.1,0-3.5-1.5L66.7,117.3z"/>
					<path class="st2" d="M82.5,117.9l-2.9-1.7l-1.4,0.6l1.1,2.5l-1.4,0.7l-3.5-7.6l3.1-1.4c1.8-0.8,2.7-0.4,3.3,0.9l0.5,1
						c0.4,0.9,0.4,1.7-0.3,2.3l3.1,1.8L82.5,117.9z M78.1,112.3l-1.6,0.7l1.2,2.6l1.6-0.7c0.8-0.4,0.9-0.8,0.6-1.4l-0.3-0.7
						C79.2,112.1,78.9,112,78.1,112.3z"/>
					<path class="st2" d="M83.6,107.9l4.3-2.8l0.8,1.2l-2.9,1.9l1.1,1.7l2.7-1.8l0.8,1.2l-2.7,1.8l1.2,1.8l2.9-1.9l0.8,1.2l-4.3,2.8
						L83.6,107.9z"/>
					<path class="st2" d="M98.8,104.7l-2.3,2l0.8,1.6l-1.2,1.1l-3.6-7.9l1.6-1.5l7.5,4.5l-1.2,1.1L98.8,104.7z M95.9,105.4l1.7-1.5
						l-3.5-2.2L95.9,105.4z"/>
					<path class="st2" d="M99.9,96l-1.5,1.8l-1.1-0.9l4-4.7l1.1,0.9l-1.5,1.8l5.3,4.5l-1,1.2L99.9,96z"/>
					<path class="st2" d="M111.2,92.6l-0.9,1.3l-6.9-4.6l0.9-1.3L111.2,92.6z"/>
					<path class="st2" d="M108.6,80.2l0.7-1.5l6.3,5.9l-1,2.1l-8.5-1.5l0.7-1.5l7.1,1.3L108.6,80.2z"/>
					<path class="st2" d="M118.7,77l-0.5,1.5l-7.8-2.8l0.5-1.5L118.7,77z"/>
					<path class="st2" d="M113.9,69l-0.5,2.3l-1.3-0.3l1.4-6l1.3,0.3l-0.5,2.3l6.7,1.6l-0.4,1.5L113.9,69z"/>
					<path class="st2" d="M114.3,57l0.1-1.7l5.7,3.2l2.4,0.2l-0.1,1.6L120,60l-6.1,2.2l0.1-1.7l4.3-1.4L114.3,57z"/>
				</g>
				<g>
					<g>
						<path class="st2" d="M-18.8,39.3c-0.1,0-0.2,0-0.3,0c-0.8-0.1-1.3-0.9-1.2-1.7c0.6-4.3,1.7-8.5,3.1-12.5
							c0.3-0.8,1.1-1.2,1.9-0.9s1.2,1.1,0.9,1.9c-1.4,3.9-2.4,7.9-3,12C-17.5,38.7-18.1,39.2-18.8,39.3z M-10.5,15.6
							c-0.3,0-0.5-0.1-0.8-0.2c-0.7-0.4-0.9-1.3-0.5-2c1.6-2.8,3.5-5.5,5.5-8c0.5-0.6,1.4-0.7,2.1-0.2C-3.6,5.7-3.5,6.6-4,7.3
							c-1.9,2.4-3.7,5-5.3,7.7C-9.5,15.3-10,15.6-10.5,15.6z"/>
					</g>
				</g>
				<g>
					<g>
						<path class="st2" d="M119,40.2c-0.7,0-1.3-0.5-1.4-1.2c-0.6-4.1-1.6-8.1-3-12c-0.3-0.8,0.1-1.6,0.9-1.9
							c0.8-0.3,1.6,0.1,1.9,0.9c1.4,4,2.5,8.3,3.1,12.5c0.1,0.8-0.4,1.5-1.2,1.7C119.2,40.2,119.1,40.2,119,40.2z M110.6,16.6
							c-0.5,0-0.9-0.3-1.2-0.7c-1.6-2.7-3.4-5.2-5.3-7.7c-0.5-0.6-0.4-1.5,0.2-2.1c0.6-0.5,1.5-0.4,2.1,0.2c2,2.5,3.9,5.2,5.6,8
							c0.4,0.7,0.2,1.6-0.5,2C111.2,16.5,110.9,16.6,110.6,16.6z"/>
					</g>
				</g>
			</g>
		</g>
		<g>
			<polygon class="st3" points="54,42.5 52.1,42.5 52.1,40.1 54,40.1 54,36.2 48.9,36.2 48.9,33.8 54,33.8 54,29.9 52.1,29.9 
				52.1,27.5 54,27.5 54,23.6 48.9,23.6 48.9,21.2 54,21.2 54,16.3 43.8,16.3 43.8,46.5 54,46.5 			"/>
			<path class="st3" d="M68.3,34.8c-0.4-0.1-0.7-0.2-1.1-0.3c0,0-0.1,0-0.1,0l-6.7,12h3.5L68.3,34.8z"/>
			<path class="st3" d="M68.1,32.1c1.7,0.7,3.1,0.6,4.2-0.4c1.7-1.5,2.5-4.7,1.8-7.6c-0.7-2.4-2.2-4.4-4.4-5.7
				c0.6,2.9-1.2,5.1-2.5,6.7c-0.6,0.7-1.1,1.4-1.3,1.9c-0.5,1.1-0.5,2.1-0.1,3C66.2,30.9,67,31.6,68.1,32.1z"/>
			<polygon class="st3" points="25.3,30.1 26.3,35.9 30.2,33 			"/>
			<polygon class="st3" points="38.3,46.5 31.6,34.9 27.2,38.2 31.7,46.5 			"/>
			<path class="st3" d="M71,55.1h-1.9v16.6H71c4.6,0,8.3-3.7,8.3-8.3C79.3,58.8,75.6,55.1,71,55.1z"/>
			<path class="st3" d="M28.3,71.2c0,3.5,1.4,15.1,19.2,15.1c8.6,0,18.8-2.5,18.8-14.1V49.4h-38V71.2z"/>
			<path class="st2" d="M71,52.7h-1.9v-6.2h-2.7l4.3-11.4c1.1-0.1,2.1-0.5,3.2-1.3c2.4-2.1,3.4-6.2,2.5-10.1c-1-4.4-4.2-7.5-8.6-8.6
				l-3-0.7l1.7,2.6c1.9,2.9,0.5,4.6-1.1,6.7c-0.7,0.8-1.3,1.6-1.7,2.5c-0.7,1.7-0.7,3.4-0.1,4.9c0.4,0.8,0.9,1.5,1.5,2l-7.4,13.4
				h-1.2V13.9H41.4v32.6h-0.3l-8.6-15l-10.4-6.2l2,12.3l4.8,8.9h-3.5v24.8c0,11.1,8.4,18,22.1,18c13.1,0,20.7-5.4,21.5-15.2h2
				c5.9,0,10.7-4.8,10.7-10.7C81.7,57.5,76.9,52.7,71,52.7z M65.9,27c0.2-0.5,0.7-1.2,1.3-1.9c1.3-1.6,3.1-3.8,2.5-6.7
				c2.2,1.3,3.7,3.3,4.4,5.7c0.7,2.9-0.1,6.1-1.8,7.6c-1.1,1-2.5,1.1-4.2,0.4c-1.1-0.5-1.9-1.2-2.3-2.1C65.4,29.1,65.4,28.1,65.9,27
				z M67.1,34.5C67.1,34.5,67.2,34.5,67.1,34.5c0.5,0.2,0.8,0.3,1.2,0.4l-4.4,11.7h-3.5L67.1,34.5z M43.8,16.3H54v4.9h-5.1v2.4H54
				v3.9h-1.9v2.4H54v3.9h-5.1v2.4H54v3.9h-1.9v2.4H54v4H43.8V16.3z M25.3,30.1l4.9,2.9l-3.9,2.9L25.3,30.1z M27.2,38.2l4.4-3.3
				l6.7,11.6h-6.7L27.2,38.2z M66.3,72.2c0,11.6-10.2,14.1-18.8,14.1c-17.8,0-19.2-11.6-19.2-15.1V49.4h38V72.2z M71,71.7h-1.9V55.1
				H71c4.6,0,8.3,3.7,8.3,8.3C79.3,68,75.6,71.7,71,71.7z"/>
		</g>
	</g>
</g>
</svg>
